<mxfile host="65bd71144e">
    <diagram id="o4JonFlr6icPQXopMlab" name="Page-1">
        <mxGraphModel dx="8" dy="1083" grid="1" gridSize="10" guides="1" tooltips="1" connect="1" arrows="1" fold="1" page="1" pageScale="1" pageWidth="850" pageHeight="1100" math="0" shadow="0">
            <root>
                <mxCell id="0"/>
                <mxCell id="1" parent="0"/>
                <mxCell id="2" value="" style="edgeStyle=none;html=1;" parent="1" source="3" target="5" edge="1">
                    <mxGeometry relative="1" as="geometry"/>
                </mxCell>
                <mxCell id="3" value="Start" style="ellipse;whiteSpace=wrap;html=1;" parent="1" vertex="1">
                    <mxGeometry x="1392.25" y="25" width="75" height="50" as="geometry"/>
                </mxCell>
                <mxCell id="4" value="" style="edgeStyle=none;html=1;entryX=0.5;entryY=0;entryDx=0;entryDy=0;" parent="1" source="5" target="8" edge="1">
                    <mxGeometry relative="1" as="geometry">
                        <mxPoint x="1429.25" y="165" as="targetPoint"/>
                    </mxGeometry>
                </mxCell>
                <mxCell id="5" value="Read&lt;br&gt;cant_shrimp" style="shape=parallelogram;perimeter=parallelogramPerimeter;whiteSpace=wrap;html=1;fixedSize=1;" parent="1" vertex="1">
                    <mxGeometry x="1369.25" y="95" width="120" height="40" as="geometry"/>
                </mxCell>
                <mxCell id="6" value="msg = &lt;br&gt;f&quot;Cantidad de camarones:{cant_shrimp}\nCamarÃ³n tipo: {shrimp}\nPesca permitida: Si\n&quot;" style="whiteSpace=wrap;html=1;align=center;" parent="1" vertex="1">
                    <mxGeometry x="1500" y="1080" width="178" height="75" as="geometry"/>
                </mxCell>
                <mxCell id="7" value="" style="edgeStyle=none;html=1;" parent="1" source="8" target="10" edge="1">
                    <mxGeometry relative="1" as="geometry"/>
                </mxCell>
                <mxCell id="8" value="jumbo = range (1, 19)" style="whiteSpace=wrap;html=1;" parent="1" vertex="1">
                    <mxGeometry x="1350" y="160" width="160" height="25" as="geometry"/>
                </mxCell>
                <mxCell id="9" value="" style="edgeStyle=none;html=1;" parent="1" source="10" target="12" edge="1">
                    <mxGeometry relative="1" as="geometry"/>
                </mxCell>
                <mxCell id="10" value="medium = range (19, 39)" style="whiteSpace=wrap;html=1;" parent="1" vertex="1">
                    <mxGeometry x="1350" y="200" width="160" height="25" as="geometry"/>
                </mxCell>
                <mxCell id="11" value="" style="edgeStyle=none;html=1;entryX=0.5;entryY=0;entryDx=0;entryDy=0;" parent="1" source="12" target="37" edge="1">
                    <mxGeometry relative="1" as="geometry">
                        <mxPoint x="1429.25" y="287.5" as="targetPoint"/>
                    </mxGeometry>
                </mxCell>
                <mxCell id="12" value="small = range (39, 56)" style="whiteSpace=wrap;html=1;" parent="1" vertex="1">
                    <mxGeometry x="1350" y="240" width="160" height="25" as="geometry"/>
                </mxCell>
                <mxCell id="15" style="edgeStyle=none;html=1;entryX=0.5;entryY=0;entryDx=0;entryDy=0;" parent="1" target="19" edge="1">
                    <mxGeometry relative="1" as="geometry">
                        <Array as="points">
                            <mxPoint x="1627" y="500"/>
                        </Array>
                        <mxPoint x="1497" y="500" as="sourcePoint"/>
                        <mxPoint x="1627" y="551" as="targetPoint"/>
                    </mxGeometry>
                </mxCell>
                <mxCell id="16" style="edgeStyle=none;html=1;entryX=0.5;entryY=0;entryDx=0;entryDy=0;" parent="1" source="17" target="20" edge="1">
                    <mxGeometry relative="1" as="geometry">
                        <Array as="points">
                            <mxPoint x="1298" y="500"/>
                        </Array>
                    </mxGeometry>
                </mxCell>
                <mxCell id="17" value="if&lt;br&gt;cant_shrimp&lt;br&gt;in&lt;br&gt;jumbo" style="rhombus;whiteSpace=wrap;html=1;" parent="1" vertex="1">
                    <mxGeometry x="1364" y="455" width="132" height="90" as="geometry"/>
                </mxCell>
                <mxCell id="18" value="" style="edgeStyle=none;html=1;" parent="1" source="19" target="54" edge="1">
                    <mxGeometry relative="1" as="geometry"/>
                </mxCell>
                <mxCell id="19" value="shrimp = &quot;Jumbo&quot;" style="whiteSpace=wrap;html=1;" parent="1" vertex="1">
                    <mxGeometry x="1566" y="551" width="122" height="34" as="geometry"/>
                </mxCell>
                <mxCell id="20" value="if&lt;br&gt;cant_shrimp&lt;br&gt;in&lt;br&gt;medium" style="rhombus;whiteSpace=wrap;html=1;" parent="1" vertex="1">
                    <mxGeometry x="1232" y="545" width="132" height="90" as="geometry"/>
                </mxCell>
                <mxCell id="21" style="edgeStyle=none;html=1;entryX=0.5;entryY=0;entryDx=0;entryDy=0;" parent="1" source="20" target="23" edge="1">
                    <mxGeometry relative="1" as="geometry">
                        <Array as="points">
                            <mxPoint x="1516" y="590"/>
                        </Array>
                        <mxPoint x="1364" y="590" as="sourcePoint"/>
                    </mxGeometry>
                </mxCell>
                <mxCell id="22" value="" style="edgeStyle=none;html=1;" parent="1" source="23" target="53" edge="1">
                    <mxGeometry relative="1" as="geometry"/>
                </mxCell>
                <mxCell id="23" value="shrimp = &quot;Mediano&quot;" style="whiteSpace=wrap;html=1;" parent="1" vertex="1">
                    <mxGeometry x="1458" y="704" width="116" height="30" as="geometry"/>
                </mxCell>
                <mxCell id="24" style="edgeStyle=none;html=1;entryX=0.5;entryY=0;entryDx=0;entryDy=0;" parent="1" target="25" edge="1">
                    <mxGeometry relative="1" as="geometry">
                        <mxPoint x="1232" y="590" as="sourcePoint"/>
                        <Array as="points">
                            <mxPoint x="1185" y="590"/>
                            <mxPoint x="1172" y="590"/>
                        </Array>
                    </mxGeometry>
                </mxCell>
                <mxCell id="25" value="if&lt;br&gt;cant_shrimp&lt;br&gt;in&lt;br&gt;small" style="rhombus;whiteSpace=wrap;html=1;" parent="1" vertex="1">
                    <mxGeometry x="1106" y="635" width="132" height="90" as="geometry"/>
                </mxCell>
                <mxCell id="26" style="edgeStyle=none;html=1;entryX=0.5;entryY=0;entryDx=0;entryDy=0;" parent="1" source="25" target="27" edge="1">
                    <mxGeometry relative="1" as="geometry">
                        <Array as="points">
                            <mxPoint x="1360" y="680"/>
                        </Array>
                        <mxPoint x="1204" y="680" as="sourcePoint"/>
                    </mxGeometry>
                </mxCell>
                <mxCell id="27" value="shrimp = &quot;Chico&quot;" style="whiteSpace=wrap;html=1;" parent="1" vertex="1">
                    <mxGeometry x="1300" y="723" width="120" height="40" as="geometry"/>
                </mxCell>
                <mxCell id="28" value="Yes" style="text;html=1;align=center;verticalAlign=middle;resizable=0;points=[];autosize=1;strokeColor=none;fillColor=none;" parent="1" vertex="1">
                    <mxGeometry x="1526" y="470" width="40" height="30" as="geometry"/>
                </mxCell>
                <mxCell id="29" value="No" style="text;html=1;align=center;verticalAlign=middle;resizable=0;points=[];autosize=1;strokeColor=none;fillColor=none;" parent="1" vertex="1">
                    <mxGeometry x="1327" y="470" width="40" height="30" as="geometry"/>
                </mxCell>
                <mxCell id="30" value="Yes" style="text;html=1;align=center;verticalAlign=middle;resizable=0;points=[];autosize=1;strokeColor=none;fillColor=none;" parent="1" vertex="1">
                    <mxGeometry x="1400" y="561" width="40" height="30" as="geometry"/>
                </mxCell>
                <mxCell id="31" value="No" style="text;html=1;align=center;verticalAlign=middle;resizable=0;points=[];autosize=1;strokeColor=none;fillColor=none;" parent="1" vertex="1">
                    <mxGeometry x="1180" y="561" width="40" height="30" as="geometry"/>
                </mxCell>
                <mxCell id="32" value="Yes" style="text;html=1;align=center;verticalAlign=middle;resizable=0;points=[];autosize=1;strokeColor=none;fillColor=none;" parent="1" vertex="1">
                    <mxGeometry x="1260" y="650" width="40" height="30" as="geometry"/>
                </mxCell>
                <mxCell id="33" style="edgeStyle=none;html=1;entryX=0.5;entryY=0;entryDx=0;entryDy=0;" parent="1" target="34" edge="1">
                    <mxGeometry relative="1" as="geometry">
                        <mxPoint x="1106" y="679" as="sourcePoint"/>
                        <Array as="points">
                            <mxPoint x="1059" y="679"/>
                            <mxPoint x="1046" y="679"/>
                        </Array>
                    </mxGeometry>
                </mxCell>
                <mxCell id="34" value="if&lt;br&gt;cant_shrimp &amp;lt; 1&amp;nbsp;" style="rhombus;whiteSpace=wrap;html=1;" parent="1" vertex="1">
                    <mxGeometry x="968" y="699.5" width="160" height="131" as="geometry"/>
                </mxCell>
                <mxCell id="35" value="No" style="text;html=1;align=center;verticalAlign=middle;resizable=0;points=[];autosize=1;strokeColor=none;fillColor=none;" parent="1" vertex="1">
                    <mxGeometry x="1054" y="650" width="40" height="30" as="geometry"/>
                </mxCell>
                <mxCell id="36" value="" style="edgeStyle=none;html=1;entryX=0.5;entryY=0;entryDx=0;entryDy=0;" parent="1" source="37" target="60" edge="1">
                    <mxGeometry relative="1" as="geometry">
                        <mxPoint x="1428.25" y="330" as="targetPoint"/>
                    </mxGeometry>
                </mxCell>
                <mxCell id="37" value="shrimp_in = False" style="whiteSpace=wrap;html=1;" parent="1" vertex="1">
                    <mxGeometry x="1350" y="280" width="160" height="20" as="geometry"/>
                </mxCell>
                <mxCell id="72" value="" style="edgeStyle=none;html=1;entryX=0.5;entryY=0;entryDx=0;entryDy=0;" parent="1" target="71" edge="1">
                    <mxGeometry relative="1" as="geometry">
                        <mxPoint x="1430" y="410" as="sourcePoint"/>
                    </mxGeometry>
                </mxCell>
                <mxCell id="74" value="" style="edgeStyle=none;html=1;exitX=0.5;exitY=1;exitDx=0;exitDy=0;entryX=0.5;entryY=0;entryDx=0;entryDy=0;" parent="1" source="39" target="71" edge="1">
                    <mxGeometry relative="1" as="geometry">
                        <mxPoint x="1430" y="390" as="sourcePoint"/>
                    </mxGeometry>
                </mxCell>
                <mxCell id="39" value="valid_value = True" style="whiteSpace=wrap;html=1;" parent="1" vertex="1">
                    <mxGeometry x="1350" y="360" width="160" height="20" as="geometry"/>
                </mxCell>
                <mxCell id="40" style="edgeStyle=none;html=1;entryX=0.5;entryY=0;entryDx=0;entryDy=0;exitX=1;exitY=0.5;exitDx=0;exitDy=0;" parent="1" source="34" target="51" edge="1">
                    <mxGeometry relative="1" as="geometry">
                        <Array as="points">
                            <mxPoint x="1265" y="765"/>
                        </Array>
                        <mxPoint x="1112" y="769" as="sourcePoint"/>
                        <mxPoint x="1265" y="814" as="targetPoint"/>
                    </mxGeometry>
                </mxCell>
                <mxCell id="41" value="Yes" style="text;html=1;align=center;verticalAlign=middle;resizable=0;points=[];autosize=1;strokeColor=none;fillColor=none;" parent="1" vertex="1">
                    <mxGeometry x="1152" y="739" width="40" height="30" as="geometry"/>
                </mxCell>
                <mxCell id="42" style="edgeStyle=none;html=1;entryX=0.5;entryY=0;entryDx=0;entryDy=0;exitX=0;exitY=0.5;exitDx=0;exitDy=0;" parent="1" source="34" target="52" edge="1">
                    <mxGeometry relative="1" as="geometry">
                        <mxPoint x="980" y="769" as="sourcePoint"/>
                        <Array as="points">
                            <mxPoint x="930" y="765"/>
                        </Array>
                        <mxPoint x="920" y="814" as="targetPoint"/>
                    </mxGeometry>
                </mxCell>
                <mxCell id="43" value="No" style="text;html=1;align=center;verticalAlign=middle;resizable=0;points=[];autosize=1;strokeColor=none;fillColor=none;" parent="1" vertex="1">
                    <mxGeometry x="928" y="740" width="40" height="30" as="geometry"/>
                </mxCell>
                <mxCell id="44" value="" style="endArrow=none;html=1;exitX=0.5;exitY=1;exitDx=0;exitDy=0;entryX=0.5;entryY=1;entryDx=0;entryDy=0;" parent="1" source="52" target="51" edge="1">
                    <mxGeometry width="50" height="50" relative="1" as="geometry">
                        <mxPoint x="920" y="854" as="sourcePoint"/>
                        <mxPoint x="1265" y="854" as="targetPoint"/>
                        <Array as="points">
                            <mxPoint x="930" y="885"/>
                            <mxPoint x="1090" y="885"/>
                            <mxPoint x="1267" y="885"/>
                        </Array>
                    </mxGeometry>
                </mxCell>
                <mxCell id="45" value="" style="endArrow=none;html=1;entryX=0.5;entryY=1;entryDx=0;entryDy=0;" parent="1" target="27" edge="1">
                    <mxGeometry width="50" height="50" relative="1" as="geometry">
                        <mxPoint x="1090" y="885" as="sourcePoint"/>
                        <mxPoint x="1180" y="575" as="targetPoint"/>
                        <Array as="points">
                            <mxPoint x="1090" y="905"/>
                            <mxPoint x="1360" y="905"/>
                        </Array>
                    </mxGeometry>
                </mxCell>
                <mxCell id="46" value="" style="endArrow=none;html=1;entryX=0.5;entryY=1;entryDx=0;entryDy=0;" parent="1" target="53" edge="1">
                    <mxGeometry width="50" height="50" relative="1" as="geometry">
                        <mxPoint x="1250" y="905" as="sourcePoint"/>
                        <mxPoint x="1516" y="755" as="targetPoint"/>
                        <Array as="points">
                            <mxPoint x="1250" y="925"/>
                            <mxPoint x="1516" y="925"/>
                        </Array>
                    </mxGeometry>
                </mxCell>
                <mxCell id="47" value="" style="endArrow=none;html=1;entryX=0.5;entryY=1;entryDx=0;entryDy=0;" parent="1" target="54" edge="1">
                    <mxGeometry width="50" height="50" relative="1" as="geometry">
                        <mxPoint x="1384" y="925" as="sourcePoint"/>
                        <mxPoint x="1627" y="685" as="targetPoint"/>
                        <Array as="points">
                            <mxPoint x="1384" y="945"/>
                            <mxPoint x="1627" y="945"/>
                        </Array>
                    </mxGeometry>
                </mxCell>
                <mxCell id="48" value="" style="endArrow=classic;html=1;entryX=0.5;entryY=0;entryDx=0;entryDy=0;" parent="1" target="50" edge="1">
                    <mxGeometry width="50" height="50" relative="1" as="geometry">
                        <mxPoint x="1430" y="945" as="sourcePoint"/>
                        <mxPoint x="1430" y="975" as="targetPoint"/>
                    </mxGeometry>
                </mxCell>
                <mxCell id="49" style="edgeStyle=none;html=1;entryX=0.5;entryY=0;entryDx=0;entryDy=0;" parent="1" source="50" target="6" edge="1">
                    <mxGeometry relative="1" as="geometry">
                        <Array as="points">
                            <mxPoint x="1589" y="1020"/>
                        </Array>
                    </mxGeometry>
                </mxCell>
                <mxCell id="50" value="if&lt;br&gt;shrimp_in&lt;br&gt;==&lt;br&gt;True" style="rhombus;whiteSpace=wrap;html=1;" parent="1" vertex="1">
                    <mxGeometry x="1364" y="975" width="132" height="90" as="geometry"/>
                </mxCell>
                <mxCell id="51" value="valid_value = False" style="whiteSpace=wrap;html=1;" parent="1" vertex="1">
                    <mxGeometry x="1207" y="814" width="120" height="40" as="geometry"/>
                </mxCell>
                <mxCell id="52" value="shrimp = &quot;Extra Chico&quot;" style="whiteSpace=wrap;html=1;" parent="1" vertex="1">
                    <mxGeometry x="860" y="814" width="140" height="40" as="geometry"/>
                </mxCell>
                <mxCell id="53" value="shrimp_in = True" style="whiteSpace=wrap;html=1;" parent="1" vertex="1">
                    <mxGeometry x="1458" y="768" width="116" height="36" as="geometry"/>
                </mxCell>
                <mxCell id="54" value="shrimp_in = True" style="whiteSpace=wrap;html=1;" parent="1" vertex="1">
                    <mxGeometry x="1569" y="614" width="116" height="31" as="geometry"/>
                </mxCell>
                <mxCell id="55" style="edgeStyle=none;html=1;exitX=0;exitY=0.5;exitDx=0;exitDy=0;entryX=0.5;entryY=0;entryDx=0;entryDy=0;entryPerimeter=0;" parent="1" source="50" target="58" edge="1">
                    <mxGeometry relative="1" as="geometry">
                        <mxPoint x="1364" y="1020" as="sourcePoint"/>
                        <Array as="points">
                            <mxPoint x="1317" y="1020"/>
                            <mxPoint x="1200" y="1020"/>
                        </Array>
                        <mxPoint x="1200" y="1085" as="targetPoint"/>
                    </mxGeometry>
                </mxCell>
                <mxCell id="56" value="No" style="text;html=1;align=center;verticalAlign=middle;resizable=0;points=[];autosize=1;strokeColor=none;fillColor=none;" parent="1" vertex="1">
                    <mxGeometry x="1275" y="991" width="40" height="30" as="geometry"/>
                </mxCell>
                <mxCell id="57" style="edgeStyle=none;html=1;entryX=0.5;entryY=0;entryDx=0;entryDy=0;" parent="1" source="58" target="63" edge="1">
                    <mxGeometry relative="1" as="geometry">
                        <Array as="points">
                            <mxPoint x="1040" y="1130"/>
                        </Array>
                    </mxGeometry>
                </mxCell>
                <mxCell id="58" value="if&lt;br&gt;valid_value&lt;br&gt;!=&lt;br&gt;False" style="rhombus;whiteSpace=wrap;html=1;" parent="1" vertex="1">
                    <mxGeometry x="1134" y="1085" width="132" height="90" as="geometry"/>
                </mxCell>
                <mxCell id="59" style="edgeStyle=none;html=1;entryX=0.5;entryY=0;entryDx=0;entryDy=0;" parent="1" source="60" target="39" edge="1">
                    <mxGeometry relative="1" as="geometry"/>
                </mxCell>
                <mxCell id="60" value="shrimp_in = False" style="whiteSpace=wrap;html=1;" parent="1" vertex="1">
                    <mxGeometry x="1350" y="320" width="160" height="20" as="geometry"/>
                </mxCell>
                <mxCell id="61" value="msg = &lt;br&gt;f&quot;Cantidad de camarones:{cant_shrimp}\nCamarÃ³n tipo: {shrimp}\nPesca permitida: No\n&quot;" style="whiteSpace=wrap;html=1;align=center;" parent="1" vertex="1">
                    <mxGeometry x="1271" y="1190" width="178" height="75" as="geometry"/>
                </mxCell>
                <mxCell id="62" style="edgeStyle=none;html=1;entryX=0.5;entryY=0;entryDx=0;entryDy=0;" parent="1" target="61" edge="1">
                    <mxGeometry relative="1" as="geometry">
                        <mxPoint x="1266" y="1130" as="sourcePoint"/>
                        <Array as="points">
                            <mxPoint x="1360" y="1130"/>
                        </Array>
                    </mxGeometry>
                </mxCell>
                <mxCell id="63" value="msg = &lt;br&gt;&quot;Cantidad incorrecta. Por favor trate nuevamente.&quot;" style="whiteSpace=wrap;html=1;align=center;" parent="1" vertex="1">
                    <mxGeometry x="951" y="1190" width="178" height="75" as="geometry"/>
                </mxCell>
                <mxCell id="64" value="" style="endArrow=none;html=1;exitX=0.5;exitY=1;exitDx=0;exitDy=0;entryX=0.5;entryY=1;entryDx=0;entryDy=0;" parent="1" source="63" target="61" edge="1">
                    <mxGeometry width="50" height="50" relative="1" as="geometry">
                        <mxPoint x="1040" y="1265" as="sourcePoint"/>
                        <mxPoint x="1360" y="1260" as="targetPoint"/>
                        <Array as="points">
                            <mxPoint x="1040" y="1296"/>
                            <mxPoint x="1200" y="1296"/>
                            <mxPoint x="1360" y="1296"/>
                        </Array>
                    </mxGeometry>
                </mxCell>
                <mxCell id="65" value="" style="endArrow=none;html=1;entryX=0.5;entryY=1;entryDx=0;entryDy=0;" parent="1" target="6" edge="1">
                    <mxGeometry width="50" height="50" relative="1" as="geometry">
                        <mxPoint x="1197.25" y="1297" as="sourcePoint"/>
                        <mxPoint x="1467.25" y="1175" as="targetPoint"/>
                        <Array as="points">
                            <mxPoint x="1197.25" y="1317"/>
                            <mxPoint x="1590" y="1317"/>
                        </Array>
                    </mxGeometry>
                </mxCell>
                <mxCell id="66" value="Yes" style="text;html=1;align=center;verticalAlign=middle;resizable=0;points=[];autosize=1;strokeColor=none;fillColor=none;" parent="1" vertex="1">
                    <mxGeometry x="1510" y="991" width="40" height="30" as="geometry"/>
                </mxCell>
                <mxCell id="67" value="" style="edgeStyle=none;html=1;" parent="1" source="68" target="70" edge="1">
                    <mxGeometry relative="1" as="geometry"/>
                </mxCell>
                <mxCell id="68" value="Return&lt;br&gt;msg" style="shape=parallelogram;perimeter=parallelogramPerimeter;whiteSpace=wrap;html=1;fixedSize=1;" parent="1" vertex="1">
                    <mxGeometry x="1370" y="1347" width="120" height="40" as="geometry"/>
                </mxCell>
                <mxCell id="69" value="" style="endArrow=classic;html=1;entryX=0.5;entryY=0;entryDx=0;entryDy=0;" parent="1" target="68" edge="1">
                    <mxGeometry width="50" height="50" relative="1" as="geometry">
                        <mxPoint x="1430" y="1317" as="sourcePoint"/>
                        <mxPoint x="1320" y="987" as="targetPoint"/>
                    </mxGeometry>
                </mxCell>
                <mxCell id="70" value="Start" style="ellipse;whiteSpace=wrap;html=1;" parent="1" vertex="1">
                    <mxGeometry x="1391.75" y="1410" width="75" height="50" as="geometry"/>
                </mxCell>
                <mxCell id="73" value="" style="edgeStyle=none;html=1;" parent="1" source="71" target="17" edge="1">
                    <mxGeometry relative="1" as="geometry"/>
                </mxCell>
                <mxCell id="71" value="shrimp = &quot;&quot;" style="whiteSpace=wrap;html=1;" parent="1" vertex="1">
                    <mxGeometry x="1350" y="400" width="160" height="20" as="geometry"/>
                </mxCell>
                <mxCell id="75" value="No" style="text;html=1;align=center;verticalAlign=middle;resizable=0;points=[];autosize=1;strokeColor=none;fillColor=none;" parent="1" vertex="1">
                    <mxGeometry x="1062.5" y="1102.5" width="40" height="30" as="geometry"/>
                </mxCell>
                <mxCell id="76" value="Yes" style="text;html=1;align=center;verticalAlign=middle;resizable=0;points=[];autosize=1;strokeColor=none;fillColor=none;" parent="1" vertex="1">
                    <mxGeometry x="1297.5" y="1102.5" width="40" height="30" as="geometry"/>
                </mxCell>
            </root>
        </mxGraphModel>
    </diagram>
</mxfile>